<?xml version="1.0" ?>
<!-- Uploaded to: SVG Repo, www.svgrepo.com, Generator: SVG Repo Mixer Tools -->
<svg width="800px" height="800px" viewBox="0 0 24 24" version="1.1" xml:space="preserve" xmlns="http://www.w3.org/2000/svg" xmlns:xlink="http://www.w3.org/1999/xlink">
<style type="text/css">
	.st0{opacity:0.2;fill:none;stroke:#000000;stroke-width:5.000000e-02;stroke-miterlimit:10;}
	.st1{fill:none;stroke:#000000;stroke-width:2;stroke-linecap:round;stroke-linejoin:round;stroke-miterlimit:10;}
</style>
<g id="Layer_1"/>
<g id="Layer_2">
<g>
<path d="M16.7,8.8c-1.9,0-3.8-0.8-5.1-2.3C10,4.7,7.3,4.3,5.3,5.7L3.6,6.8C3.1,7.1,2.5,7,2.2,6.6C1.9,6.1,2,5.5,2.4,5.2L4.2,4    c2.8-1.9,6.6-1.4,8.9,1.2c1.7,1.9,4.6,2.2,6.6,0.6l0.7-0.5c0.4-0.3,1.1-0.3,1.4,0.2c0.3,0.4,0.3,1.1-0.2,1.4L21,7.3    C19.7,8.3,18.2,8.8,16.7,8.8z"/>
</g>
<g>
<path d="M16.7,14.8c-1.9,0-3.8-0.8-5.1-2.3c-1.6-1.8-4.3-2.2-6.3-0.8l-1.8,1.2c-0.5,0.3-1.1,0.2-1.4-0.3S2,11.5,2.4,11.2L4.2,10    c2.8-1.9,6.6-1.4,8.9,1.2c1.7,1.9,4.6,2.2,6.6,0.6l0.7-0.5c0.4-0.3,1.1-0.3,1.4,0.2c0.3,0.4,0.3,1.1-0.2,1.4L21,13.3    C19.7,14.3,18.2,14.8,16.7,14.8z"/>
</g>
<g>
<path d="M16.7,20.8c-1.9,0-3.8-0.8-5.1-2.3c-1.6-1.8-4.3-2.2-6.3-0.8l-1.8,1.2c-0.5,0.3-1.1,0.2-1.4-0.3c-0.3-0.5-0.2-1.1,0.3-1.4    L4.2,16c2.8-1.9,6.6-1.4,8.9,1.2c1.7,1.9,4.6,2.2,6.6,0.6l0.7-0.5c0.4-0.3,1.1-0.3,1.4,0.2c0.3,0.4,0.3,1.1-0.2,1.4L21,19.3    C19.7,20.3,18.2,20.8,16.7,20.8z"/>
</g>
</g>
</svg>